<?xml version="1.0" encoding="UTF-8" standalone="no"?>
<!-- Created with Inkscape (http://www.inkscape.org/) -->

<svg
   width="222.63092mm"
   height="209.67633mm"
   viewBox="0 0 222.63092 209.67633"
   version="1.1"
   id="svg1"
   inkscape:version="1.3.2 (091e20e, 2023-11-25, custom)"
   sodipodi:docname="Prototyp1 Logga.svg"
   xmlns:inkscape="http://www.inkscape.org/namespaces/inkscape"
   xmlns:sodipodi="http://sodipodi.sourceforge.net/DTD/sodipodi-0.dtd"
   xmlns:xlink="http://www.w3.org/1999/xlink"
   xmlns="http://www.w3.org/2000/svg"
   xmlns:svg="http://www.w3.org/2000/svg">
  <sodipodi:namedview
     id="namedview1"
     pagecolor="#ffffff"
     bordercolor="#000000"
     borderopacity="0.25"
     inkscape:showpageshadow="2"
     inkscape:pageopacity="0.0"
     inkscape:pagecheckerboard="0"
     inkscape:deskcolor="#d1d1d1"
     inkscape:document-units="mm"
     inkscape:zoom="0.37527204"
     inkscape:cx="-53.294671"
     inkscape:cy="259.81152"
     inkscape:window-width="1920"
     inkscape:window-height="974"
     inkscape:window-x="-11"
     inkscape:window-y="-11"
     inkscape:window-maximized="1"
     inkscape:current-layer="layer2" />
  <defs
     id="defs1">
    <color-profile
       name="Agfa-:-Swop-Standard"
       xlink:href="../../WINDOWS/system32/spool/drivers/color/RSWOP.icm"
       id="color-profile5" />
    <color-profile
       name="sRGB-IEC61966-2.1"
       xlink:href="../../WINDOWS/system32/spool/drivers/color/sRGB%20Color%20Space%20Profile.icm"
       id="color-profile4" />
    <color-profile
       name="Agfa-:-Swop-Standard"
       xlink:href="../../WINDOWS/system32/spool/drivers/color/RSWOP.icm"
       id="color-profile6" />
  </defs>
  <g
     inkscape:label="Background"
     inkscape:groupmode="layer"
     id="layer1"
     transform="translate(-38.581867,-98.174822)">
    <path
       sodipodi:type="star"
       style="fill:#d3bc5f;fill-rule:evenodd;stroke-width:0.264583"
       id="path35-4-7-7"
       inkscape:flatsided="false"
       sodipodi:sides="3"
       sodipodi:cx="110.11908"
       sodipodi:cy="257.21246"
       sodipodi:r1="22.649168"
       sodipodi:r2="5.5826097"
       sodipodi:arg1="1.091277"
       sodipodi:arg2="2.203268"
       inkscape:rounded="0"
       inkscape:randomized="0"
       d="m 120.56834,277.30719 -13.74937,-15.59197 -19.327058,-5.5008 20.377718,-4.11131 14.42736,-13.98733 -6.62835,19.70328 z"
       inkscape:transform-center-x="-2.7488547"
       inkscape:transform-center-y="-4.0189479"
       transform="translate(96.128923,16.41338)" />
  </g>
  <g
     inkscape:groupmode="layer"
     id="layer2"
     inkscape:label="Layer 1"
     transform="translate(-38.581867,-98.174822)">
    <path
       style="fill:#ff7f2a;stroke-width:0.264583"
       id="path5"
       sodipodi:type="arc"
       sodipodi:cx="99.267929"
       sodipodi:cy="229.48172"
       sodipodi:rx="59.882275"
       sodipodi:ry="71.93911"
       sodipodi:start="6.1392728"
       sodipodi:end="6.139047"
       sodipodi:arc-type="slice"
       d="M 158.53117,219.16448 A 59.882275,71.93911 0 0 1 107.85937,300.67657 59.882275,71.93911 0 0 1 40.00566,239.807 59.882275,71.93911 0 0 1 90.669801,158.28803 59.882275,71.93911 0 0 1 158.52923,219.14841 L 99.267929,229.48172 Z" />
    <path
       style="fill:#ff7f2a;stroke-width:0.264583"
       id="path6"
       sodipodi:type="arc"
       sodipodi:cx="199.74153"
       sodipodi:cy="231.8931"
       sodipodi:rx="59.882271"
       sodipodi:ry="73.546684"
       sodipodi:start="6.1392728"
       sodipodi:end="6.139047"
       sodipodi:arc-type="slice"
       d="m 259.00477,221.34531 a 59.882271,73.546684 0 0 1 -50.6718,83.33358 59.882271,73.546684 0 0 1 -67.8537,-62.22978 59.882271,73.546684 0 0 1 50.66413,-83.34062 59.882271,73.546684 0 0 1 67.85943,62.22038 l -59.2613,10.56423 z" />
    <path
       style="fill:#ff7f2a;stroke-width:0.283986"
       id="path7"
       sodipodi:type="arc"
       sodipodi:cx="147.09337"
       sodipodi:cy="228.67795"
       sodipodi:rx="16.075777"
       sodipodi:ry="79.17321"
       sodipodi:start="6.1392728"
       sodipodi:end="6.139047"
       sodipodi:arc-type="slice"
       d="m 163.00296,217.32322 a 16.075777,79.17321 0 0 1 -13.60317,89.70884 16.075777,79.17321 0 0 1 -18.21575,-66.99054 16.075777,79.17321 0 0 1 13.60111,-89.7164 16.075777,79.17321 0 0 1 18.21729,66.98041 l -15.90907,11.37242 z" />
    <path
       style="fill:#ff7f2a;stroke-width:0.395841"
       id="path8"
       sodipodi:type="arc"
       sodipodi:cx="133.42896"
       sodipodi:cy="228.67793"
       sodipodi:rx="21.702301"
       sodipodi:ry="76.761841"
       sodipodi:start="6.1392728"
       sodipodi:end="6.139047"
       sodipodi:arc-type="slice"
       d="m 154.90691,217.66904 a 21.702301,76.761841 0 0 1 -18.36428,86.97658 21.702301,76.761841 0 0 1 -24.59128,-64.95021 21.702301,76.761841 0 0 1 18.3615,-86.98392 21.702301,76.761841 0 0 1 24.59335,64.94039 l -21.47724,11.02605 z" />
    <path
       style="fill:#ff7f2a;stroke-width:0.264583"
       id="path36"
       sodipodi:type="arc"
       sodipodi:cx="117.35319"
       sodipodi:cy="228.67795"
       sodipodi:rx="29.740189"
       sodipodi:ry="75.154266"
       sodipodi:start="6.1392728"
       sodipodi:end="5.649238"
       sodipodi:open="true"
       sodipodi:arc-type="arc"
       d="m 146.78594,217.8996 a 29.740189,75.154266 0 0 1 -21.60274,83.28112 29.740189,75.154266 0 0 1 -35.349066,-44.00439 29.740189,75.154266 0 0 1 12.963246,-94.03601 29.740189,75.154266 0 0 1 38.51735,21.02152" />
    <path
       style="fill:#ff7f2a;stroke-width:0.429817"
       id="path9"
       sodipodi:type="arc"
       sodipodi:cx="160.35588"
       sodipodi:cy="229.07985"
       sodipodi:rx="22.907982"
       sodipodi:ry="77.163734"
       sodipodi:start="6.1392728"
       sodipodi:end="6.139047"
       sodipodi:arc-type="slice"
       d="m 183.02705,218.01331 a 22.907982,77.163734 0 0 1 -19.38451,87.43197 22.907982,77.163734 0 0 1 -25.95746,-65.29027 22.907982,77.163734 0 0 1 19.38158,-87.43934 22.907982,77.163734 0 0 1 25.95965,65.2804 l -22.67043,11.08378 z" />
    <path
       style="fill:#ff7f2a;stroke-width:0.264583"
       id="path36-5"
       sodipodi:type="arc"
       sodipodi:cx="178.35571"
       sodipodi:cy="229.91188"
       sodipodi:rx="29.740189"
       sodipodi:ry="75.154266"
       sodipodi:start="6.1392728"
       sodipodi:end="5.649238"
       sodipodi:open="true"
       sodipodi:arc-type="arc"
       d="m 207.78846,219.13354 a 29.740189,75.154266 0 0 1 -21.60273,83.28111 29.740189,75.154266 0 0 1 -35.34907,-44.00439 29.740189,75.154266 0 0 1 12.96324,-94.036 29.740189,75.154266 0 0 1 38.51735,21.02152" />
    <path
       style="fill:#ff6600;stroke-width:0.264583"
       id="path32"
       sodipodi:type="arc"
       sodipodi:cx="118.96075"
       sodipodi:cy="196.1245"
       sodipodi:rx="69.125847"
       sodipodi:ry="42.600811"
       sodipodi:start="2.688705"
       sodipodi:end="5.4209665"
       sodipodi:arc-type="slice"
       d="m 56.803662,214.76507 a 69.125847,42.600811 0 0 1 19.908605,-52.35869 69.125847,42.600811 0 0 1 87.232423,1.37182 l -44.98394,32.3463 z" />
    <path
       style="fill:#ff6600;stroke-width:0.264583"
       id="path33"
       sodipodi:type="arc"
       sodipodi:cx="92.033829"
       sodipodi:cy="247.56697"
       sodipodi:rx="43.002708"
       sodipodi:ry="51.442486"
       sodipodi:start="2.4137985"
       sodipodi:end="5.3497988"
       sodipodi:arc-type="slice"
       d="m 59.926132,281.78776 a 43.002708,51.442486 0 0 1 0.357522,-68.91566 43.002708,51.442486 0 0 1 57.341766,-6.64636 l -25.591591,41.34123 z" />
    <path
       style="fill:#ff6600;stroke-width:0.264583"
       id="path33-4"
       sodipodi:type="arc"
       sodipodi:cx="93.29599"
       sodipodi:cy="244.99974"
       sodipodi:rx="49.051872"
       sodipodi:ry="54.967705"
       sodipodi:start="1.4587376"
       sodipodi:end="5.3497988"
       sodipodi:arc-type="slice"
       d="M 98.781184,299.62269 A 49.051872,54.967705 0 0 1 47.850183,265.68588 49.051872,54.967705 0 0 1 63.236553,201.56256 49.051872,54.967705 0 0 1 122.48754,200.8255 L 93.29599,244.99974 Z" />
    <path
       style="fill:#ff6600;stroke-width:0.264583"
       id="path47"
       sodipodi:type="arc"
       sodipodi:cx="119.50497"
       sodipodi:cy="288.36301"
       sodipodi:rx="49.705608"
       sodipodi:ry="11.98575"
       sodipodi:start="1.4587376"
       sodipodi:end="5.3497988"
       sodipodi:arc-type="slice"
       d="m 125.06326,300.27358 a 49.705608,11.98575 0 0 1 -51.609776,-7.39995 49.705608,11.98575 0 0 1 15.59143,-13.98213 49.705608,11.98575 0 0 1 60.040646,-0.16072 l -29.58059,9.63223 z" />
    <path
       style="fill:#ff6600;stroke-width:0.264583"
       id="path48"
       sodipodi:type="arc"
       sodipodi:cx="117.03732"
       sodipodi:cy="252.40579"
       sodipodi:rx="39.482468"
       sodipodi:ry="50.058128"
       sodipodi:start="0.77052879"
       sodipodi:end="4.3933312"
       sodipodi:arc-type="slice"
       d="m 145.36767,287.27202 a 39.482468,50.058128 0 0 1 -43.97181,11.09617 39.482468,50.058128 0 0 1 -23.802552,-48.17113 39.482468,50.058128 0 0 1 27.059472,-45.32303 l 12.38454,47.53176 z" />
  </g>
  <path
     style="fill:#ff6600;stroke-width:0.264583"
     id="path30"
     sodipodi:type="arc"
     sodipodi:cx="16.477673"
     sodipodi:cy="132.1107"
     sodipodi:rx="16.477673"
     sodipodi:ry="44.610283"
     sodipodi:start="1.2604765"
     sodipodi:end="4.6373301"
     sodipodi:arc-type="slice"
     d="M 21.509347,174.59022 A 16.477673,44.610283 0 0 1 4.4830807,162.69781 16.477673,44.610283 0 0 1 1.1158005,115.97396 16.477673,44.610283 0 0 1 15.242038,87.626024 l 1.235635,44.484676 z" />
  <path
     style="fill:#ff7f2a;stroke-width:0.264583"
     id="path30-0"
     sodipodi:type="arc"
     sodipodi:cx="206.15326"
     sodipodi:cy="137.95383"
     sodipodi:rx="16.477673"
     sodipodi:ry="44.610283"
     sodipodi:start="4.6379139"
     sodipodi:end="4.6373301"
     sodipodi:arc-type="slice"
     d="m 204.92722,93.467203 a 16.477673,44.610283 0 0 1 17.65786,41.160847 16.477673,44.610283 0 0 1 -15.20098,47.81143 16.477673,44.610283 0 0 1 -17.6623,-41.14689 16.477673,44.610283 0 0 1 15.19582,-47.823441 l 1.23564,44.484681 z" />
  <path
     style="fill:#ff6600;stroke-width:0.264583"
     id="path30-8"
     sodipodi:type="arc"
     sodipodi:cx="22.004478"
     sodipodi:cy="109.89577"
     sodipodi:rx="18.085251"
     sodipodi:ry="24.515558"
     sodipodi:start="2.2379042"
     sodipodi:end="5.3715769"
     sodipodi:arc-type="slice"
     d="M 10.814836,129.15554 A 18.085251,24.515558 0 0 1 7.7522466,94.803974 18.085251,24.515558 0 0 1 33.081245,90.516467 L 22.004478,109.89577 Z" />
  <path
     style="fill:#ff6600;stroke-width:0.264583"
     id="path30-8-6"
     sodipodi:type="arc"
     sodipodi:cx="37.795597"
     sodipodi:cy="95.824661"
     sodipodi:rx="25.319349"
     sodipodi:ry="24.515556"
     sodipodi:start="2.5122526"
     sodipodi:end="5.3541458"
     sodipodi:arc-type="slice"
     d="M 17.327027,110.2548 A 25.319349,24.515556 0 0 1 20.00361,78.382257 25.319349,24.515556 0 0 1 52.951852,76.186589 L 37.795597,95.824661 Z" />
  <g
     inkscape:groupmode="layer"
     id="layer6"
     inkscape:label="Shadows"
     transform="translate(-38.581867,-98.174822)" />
  <g
     inkscape:groupmode="layer"
     id="layer5"
     inkscape:label="Stem"
     transform="translate(-38.581867,-98.174822)">
    <path
       style="fill:#552200;stroke-width:0.264583"
       id="path40"
       sodipodi:type="arc"
       sodipodi:cx="148.29906"
       sodipodi:cy="129.00812"
       sodipodi:rx="17.28146"
       sodipodi:ry="30.833296"
       sodipodi:start="0.47191232"
       sodipodi:end="4.9471126"
       sodipodi:arc-type="slice"
       d="m 163.69166,143.02464 a 17.28146,30.833296 0 0 1 -22.00833,14.46795 17.28146,30.833296 0 0 1 -9.82191,-38.00155 17.28146,30.833296 0 0 1 20.45686,-20.470728 l -4.01922,29.987808 z" />
    <path
       style="fill:#803300;stroke-width:0.264583"
       id="path40-5"
       sodipodi:type="arc"
       sodipodi:cx="152.84909"
       sodipodi:cy="134.52467"
       sodipodi:rx="17.28146"
       sodipodi:ry="28.718164"
       sodipodi:start="0.47615654"
       sodipodi:end="4.4249018"
       sodipodi:arc-type="slice"
       d="m 168.20822,147.68812 a 17.28146,28.718164 0 0 1 -19.15758,14.85242 17.28146,28.718164 0 0 1 -13.47363,-27.07008 17.28146,28.718164 0 0 1 12.37204,-28.48534 l 4.90004,27.53955 z" />
    <path
       style="fill:#008000;stroke-width:0.264583"
       id="path37"
       sodipodi:type="arc"
       sodipodi:cx="141.86874"
       sodipodi:cy="158.74831"
       sodipodi:rx="20.496616"
       sodipodi:ry="8.4397831"
       sodipodi:start="6.1392728"
       sodipodi:end="5.649238"
       sodipodi:open="true"
       sodipodi:arc-type="arc"
       d="m 162.15348,157.5379 a 20.496616,8.4397831 0 0 1 -14.88837,9.35243 20.496616,8.4397831 0 0 1 -24.3622,-4.94167 20.496616,8.4397831 0 0 1 8.93413,-10.56019 20.496616,8.4397831 0 0 1 26.54574,2.3607" />
    <path
       style="fill:#008000;stroke-width:0.264583"
       id="path38"
       sodipodi:type="arc"
       sodipodi:cx="169.59946"
       sodipodi:cy="156.73885"
       sodipodi:rx="16.879566"
       sodipodi:ry="8.0378885"
       sodipodi:start="6.1392728"
       sodipodi:end="5.649238"
       sodipodi:open="true"
       sodipodi:arc-type="arc"
       d="m 186.30453,155.58608 a 16.879566,8.0378885 0 0 1 -12.26101,8.90707 16.879566,8.0378885 0 0 1 -20.06299,-4.70635 16.879566,8.0378885 0 0 1 7.35752,-10.05733 16.879566,8.0378885 0 0 1 21.8612,2.2483" />
    <path
       style="fill:#008000;stroke-width:0.264583"
       id="path39"
       sodipodi:type="arc"
       sodipodi:cx="119.76453"
       sodipodi:cy="157.54262"
       sodipodi:rx="16.075777"
       sodipodi:ry="8.0378885"
       sodipodi:start="6.1392728"
       sodipodi:end="5.649238"
       sodipodi:open="true"
       sodipodi:arc-type="arc"
       d="m 135.67412,156.38985 a 16.075777,8.0378885 0 0 1 -11.67715,8.90707 16.075777,8.0378885 0 0 1 -19.10761,-4.70635 16.075777,8.0378885 0 0 1 7.00716,-10.05732 16.075777,8.0378885 0 0 1 20.82019,2.24829" />
  </g>
  <path
     sodipodi:type="star"
     style="fill:#ffff00;fill-rule:evenodd;stroke-width:0.264583"
     id="path12"
     inkscape:flatsided="false"
     sodipodi:sides="3"
     sodipodi:cx="120.56833"
     sodipodi:cy="259.62381"
     sodipodi:r1="22.419804"
     sodipodi:r2="11.209902"
     sodipodi:arg1="0.2536741"
     sodipodi:arg2="1.3008716"
     inkscape:rounded="0"
     inkscape:randomized="0"
     d="m 142.27063,265.25033 -18.71308,5.17748 -18.71308,5.17748 4.87271,-18.79474 4.87271,-18.79474 13.84037,13.61726 z"
     inkscape:transform-center-x="-2.9892177"
     inkscape:transform-center-y="-2.8132644"
     transform="translate(-38.581867,-98.174822)" />
  <g
     inkscape:groupmode="layer"
     id="layer4"
     inkscape:label="Smile"
     transform="translate(-38.581867,-98.174822)">
    <path
       sodipodi:type="star"
       style="fill:#ffff00;fill-rule:evenodd;stroke-width:0.264583"
       id="path15"
       inkscape:flatsided="false"
       sodipodi:sides="3"
       sodipodi:cx="200.14345"
       sodipodi:cy="273.28824"
       sodipodi:r1="18.556908"
       sodipodi:r2="9.2784529"
       sodipodi:arg1="3.0548543"
       sodipodi:arg2="4.1020519"
       inkscape:rounded="0"
       inkscape:randomized="0"
       d="m 181.6563,274.89582 13.16926,-9.21085 13.16926,-9.21086 1.3922,16.01034 1.3922,16.01034 -14.56146,-6.79949 z"
       inkscape:transform-center-x="3.9256873"
       inkscape:transform-center-y="-0.8037923" />
    <path
       sodipodi:type="star"
       style="fill:#ffff00;fill-rule:evenodd;stroke-width:0.264583"
       id="path13"
       inkscape:flatsided="false"
       sodipodi:sides="3"
       sodipodi:cx="149.50475"
       sodipodi:cy="262.83899"
       sodipodi:r1="28.981022"
       sodipodi:r2="14.49051"
       sodipodi:arg1="2.8023"
       sodipodi:arg2="3.8494976"
       inkscape:rounded="0"
       inkscape:randomized="0"
       d="m 122.17592,272.48446 16.32001,-19.06783 16.32001,-19.06783 8.35322,23.66746 8.35322,23.66745 -24.67323,-4.59963 z"
       inkscape:transform-center-x="2.6555979"
       inkscape:transform-center-y="-4.8227367" />
    <path
       sodipodi:type="star"
       style="fill:#ffff00;fill-rule:evenodd;stroke-width:0.264583"
       id="path16"
       inkscape:flatsided="false"
       sodipodi:sides="3"
       sodipodi:cx="113.33424"
       sodipodi:cy="277.30716"
       sodipodi:r1="18.062908"
       sodipodi:r2="9.0314531"
       sodipodi:arg1="-0.36397896"
       sodipodi:arg2="0.68321859"
       inkscape:rounded="0"
       inkscape:randomized="0"
       d="m 130.21381,270.87685 -9.87527,12.1318 -9.87527,12.1318 -5.56881,-14.61814 -5.568812,-14.61813 15.444082,2.48634 z"
       inkscape:transform-center-x="-1.4354839"
       inkscape:transform-center-y="3.2151521" />
    <path
       sodipodi:type="star"
       style="fill:#ffff00;fill-rule:evenodd;stroke-width:0.264583"
       id="path14"
       inkscape:flatsided="false"
       sodipodi:sides="3"
       sodipodi:cx="173.61841"
       sodipodi:cy="266.05414"
       sodipodi:r1="25.884001"
       sodipodi:r2="12.941999"
       sodipodi:arg1="2.691833"
       sodipodi:arg2="3.7390306"
       inkscape:rounded="0"
       inkscape:randomized="0"
       d="m 150.30853,277.30718 12.6097,-18.53325 12.60969,-18.53326 9.74543,20.18695 9.74542,20.18694 -22.35512,-1.65369 z"
       inkscape:transform-center-x="0.95476067"
       inkscape:transform-center-y="-5.6265255" />
    <path
       sodipodi:type="star"
       style="fill:#ffff00;fill-rule:evenodd;stroke-width:0.264583"
       id="path17"
       inkscape:flatsided="false"
       sodipodi:sides="3"
       sodipodi:cx="171.20705"
       sodipodi:cy="278.91476"
       sodipodi:r1="21.835854"
       sodipodi:r2="13.029551"
       sodipodi:arg1="0.11065722"
       sodipodi:arg2="0.4960318"
       inkscape:rounded="0"
       inkscape:randomized="0"
       d="m 192.90935,281.32613 -10.2431,3.78991 -24.39866,11.38778 1.83939,-10.76573 2.33722,-26.82375 8.40371,6.97582 z"
       inkscape:transform-center-x="-3.1757372"
       inkscape:transform-center-y="-1.2056869" />
    <path
       sodipodi:type="star"
       style="fill:#ffff00;fill-rule:evenodd;stroke-width:0.264583"
       id="path20"
       inkscape:flatsided="false"
       sodipodi:sides="3"
       sodipodi:cx="141.46684"
       sodipodi:cy="274.09201"
       sodipodi:r1="14.667771"
       sodipodi:r2="8.7523241"
       sodipodi:arg1="1.4056476"
       sodipodi:arg2="2.4528452"
       inkscape:rounded="0"
       inkscape:randomized="0"
       d="m 143.87821,288.56021 -9.16854,-8.90548 -6.97834,-10.70851 12.29664,-3.48745 12.76302,-0.68917 -3.12811,12.39293 z"
       inkscape:transform-center-x="1.2056851"
       inkscape:transform-center-y="2.5728942" />
    <path
       sodipodi:type="star"
       style="fill:#ffff00;fill-rule:evenodd;stroke-width:0.264583"
       id="path21"
       inkscape:flatsided="false"
       sodipodi:sides="3"
       sodipodi:cx="189.69418"
       sodipodi:cy="277.30716"
       sodipodi:r1="15.523742"
       sodipodi:r2="9.2630863"
       sodipodi:arg1="1.199905"
       sodipodi:arg2="2.2471026"
       inkscape:rounded="0"
       inkscape:randomized="0"
       d="m 195.32071,291.77536 -11.42445,-7.24401 -9.54517,-9.58558 11.98572,-6.27185 13.07394,-3.47357 -0.56128,13.51586 z"
       inkscape:transform-center-x="2.8132636"
       inkscape:transform-center-y="1.1806909" />
    <path
       sodipodi:type="star"
       style="fill:#ffff00;fill-rule:evenodd;stroke-width:0.264583"
       id="path26"
       inkscape:flatsided="false"
       sodipodi:sides="3"
       sodipodi:cx="128.60622"
       sodipodi:cy="276.50339"
       sodipodi:r1="15.293127"
       sodipodi:r2="10.267345"
       sodipodi:arg1="1.5182133"
       sodipodi:arg2="2.5654108"
       inkscape:rounded="0"
       inkscape:randomized="0"
       d="m 129.41,291.77538 -9.41346,-9.67807 -5.01815,-12.53382 13.08819,-3.31326 13.36367,1.92106 -3.67472,12.99133 z"
       inkscape:transform-center-x="0.40189607"
       inkscape:transform-center-y="2.509414" />
    <path
       sodipodi:type="star"
       style="fill:#ffff00;fill-rule:evenodd;stroke-width:0.264583"
       id="path28"
       inkscape:flatsided="false"
       sodipodi:sides="3"
       sodipodi:cx="93.239517"
       sodipodi:cy="268.46548"
       sodipodi:r1="18.50461"
       sodipodi:r2="9.3264761"
       sodipodi:arg1="0.043450885"
       sodipodi:arg2="1.2025508"
       inkscape:rounded="0"
       inkscape:randomized="0"
       d="m 111.72666,269.26927 -15.129806,7.89745 -13.297011,6.90721 0.725517,-17.05152 0.666686,-14.96916 14.404291,9.15408 z"
       inkscape:transform-center-x="-2.8815311"
       inkscape:transform-center-y="-2.0094756" />
    <path
       sodipodi:type="star"
       style="fill:#ffff00;fill-rule:evenodd;stroke-width:0.264583"
       id="path29"
       inkscape:flatsided="false"
       sodipodi:sides="3"
       sodipodi:cx="213.80786"
       sodipodi:cy="271.68063"
       sodipodi:r1="12.709018"
       sodipodi:r2="6.2651682"
       sodipodi:arg1="0.96525166"
       sodipodi:arg2="2.0124492"
       inkscape:rounded="0"
       inkscape:randomized="0"
       d="m 221.04196,282.12989 -9.91205,-4.78525 -9.98842,-4.62372 9.10018,-6.19146 8.99846,-6.33837 0.81188,10.97671 z"
       inkscape:transform-center-x="2.7161381"
       inkscape:transform-center-y="-0.52014671" />
    <path
       sodipodi:type="star"
       style="fill:#ffff00;fill-rule:evenodd;stroke-width:0.264583"
       id="path27"
       inkscape:flatsided="false"
       sodipodi:sides="3"
       sodipodi:cx="105.29634"
       sodipodi:cy="266.05414"
       sodipodi:r1="21.567921"
       sodipodi:r2="10.783961"
       sodipodi:arg1="2.0344439"
       sodipodi:arg2="3.0816415"
       inkscape:rounded="0"
       inkscape:randomized="0"
       d="m 95.650874,285.34507 -1.119121,-18.64481 -1.119119,-18.64481 16.706446,8.35322 16.70643,8.35322 -15.58732,10.29159 z"
       inkscape:transform-center-x="-4.822732"
       inkscape:transform-center-y="0.64612056" />
    <path
       sodipodi:type="star"
       style="fill:#dfb900;fill-opacity:1;fill-rule:evenodd;stroke-width:0.264583"
       id="path3-0"
       inkscape:flatsided="false"
       sodipodi:sides="3"
       sodipodi:cx="171.3257"
       sodipodi:cy="268.6218"
       sodipodi:r1="10.409854"
       sodipodi:r2="3.6294365"
       sodipodi:arg1="1.0768549"
       sodipodi:arg2="2.1240525"
       inkscape:rounded="0"
       inkscape:randomized="0"
       d="m 176.26101,277.78737 -6.84244,-6.07758 -8.49815,-3.39668 8.68456,-2.88693 7.19068,-5.66128 -1.84212,8.96452 z"
       inkscape:transform-center-x="-0.059882691"
       inkscape:transform-center-y="-1.1925829"
       transform="translate(23.71809,3.7585534)" />
    <path
       sodipodi:type="star"
       style="fill:#dfb900;fill-opacity:1;fill-rule:evenodd;stroke-width:0.264583"
       id="path3"
       inkscape:flatsided="false"
       sodipodi:sides="3"
       sodipodi:cx="171.3257"
       sodipodi:cy="268.6218"
       sodipodi:r1="14.276056"
       sodipodi:r2="3.6294365"
       sodipodi:arg1="1.2178059"
       sodipodi:arg2="2.2650035"
       inkscape:rounded="0"
       inkscape:randomized="0"
       d="m 176.26101,282.01763 -7.25734,-10.60639 -11.74676,-5.21326 12.81407,-0.98184 10.3882,-7.56637 -5.55674,11.58824 z"
       inkscape:transform-center-x="-0.059882691"
       inkscape:transform-center-y="-1.1925829" />
    <path
       sodipodi:type="star"
       style="fill:#dfb900;fill-opacity:1;fill-rule:evenodd;stroke-width:0.264583"
       id="path3-27"
       inkscape:flatsided="false"
       sodipodi:sides="3"
       sodipodi:cx="171.3257"
       sodipodi:cy="268.6218"
       sodipodi:r1="10.481235"
       sodipodi:r2="3.6294365"
       sodipodi:arg1="1.9138201"
       sodipodi:arg2="2.9610177"
       inkscape:rounded="0"
       inkscape:randomized="0"
       d="m 167.80048,278.49241 -0.0452,-9.21878 -3.21517,-8.64007 8.00631,4.57024 9.0901,1.53562 -7.9611,4.64854 z"
       inkscape:transform-center-x="-0.059882691"
       inkscape:transform-center-y="-1.1925829"
       transform="translate(-44.808992,-3.3851966)" />
    <path
       sodipodi:type="star"
       style="fill:#dfb900;fill-opacity:1;fill-rule:evenodd;stroke-width:0.264583"
       id="path3-1"
       inkscape:flatsided="false"
       sodipodi:sides="3"
       sodipodi:cx="171.3257"
       sodipodi:cy="268.6218"
       sodipodi:r1="14.276056"
       sodipodi:r2="3.6294365"
       sodipodi:arg1="1.2178059"
       sodipodi:arg2="2.2650035"
       inkscape:rounded="0"
       inkscape:randomized="0"
       d="m 176.26101,282.01763 -7.25734,-10.60639 -11.74676,-5.21326 12.81407,-0.98184 10.3882,-7.56637 -5.55674,11.58824 z"
       inkscape:transform-center-x="-0.059882691"
       inkscape:transform-center-y="-1.1925829"
       transform="translate(-60.154827,1.6418867)" />
    <path
       sodipodi:type="star"
       style="fill:#dfb900;fill-opacity:1;fill-rule:evenodd;stroke-width:0.264583"
       id="path3-6"
       inkscape:flatsided="false"
       sodipodi:sides="3"
       sodipodi:cx="168.50551"
       sodipodi:cy="274.26215"
       sodipodi:r1="11.035685"
       sodipodi:r2="3.6294365"
       sodipodi:arg1="2.677945"
       sodipodi:arg2="3.7251426"
       inkscape:rounded="0"
       inkscape:randomized="0"
       d="m 158.63489,279.19745 6.84181,-6.93509 3.69001,-9.01607 2.58507,9.39272 5.96314,7.70369 -9.42687,-2.45764 z"
       inkscape:transform-center-x="-0.059882691"
       inkscape:transform-center-y="-1.1925829"
       transform="translate(-21.52566,-5.5018633)" />
    <path
       sodipodi:type="star"
       style="fill:#dfb900;fill-opacity:1;fill-rule:evenodd;stroke-width:0.264583"
       id="path3-6-1"
       inkscape:flatsided="false"
       sodipodi:sides="3"
       sodipodi:cx="162.16011"
       sodipodi:cy="271.44196"
       sodipodi:r1="13.561794"
       sodipodi:r2="3.6294365"
       sodipodi:arg1="1.083897"
       sodipodi:arg2="2.1310946"
       inkscape:rounded="0"
       inkscape:randomized="0"
       d="m 168.50551,283.4277 -8.27422,-8.91126 -11.62384,-3.57208 11.85449,-2.71006 8.90543,-8.2805 -3.58027,11.62132 z"
       inkscape:transform-center-x="-0.059882691"
       inkscape:transform-center-y="-1.1925829"
       transform="translate(19.429693,3.9828735)" />
    <path
       sodipodi:type="star"
       style="fill:#dfb900;fill-opacity:1;fill-rule:evenodd;stroke-width:0.264583"
       id="path3-6-5"
       inkscape:flatsided="false"
       sodipodi:sides="3"
       sodipodi:cx="168.50551"
       sodipodi:cy="274.26215"
       sodipodi:r1="11.035685"
       sodipodi:r2="3.6294365"
       sodipodi:arg1="2.677945"
       sodipodi:arg2="3.7251426"
       inkscape:rounded="0"
       inkscape:randomized="0"
       d="m 158.63489,279.19745 6.84181,-6.93509 3.69001,-9.01607 2.58507,9.39272 5.96314,7.70369 -9.42687,-2.45764 z"
       inkscape:transform-center-x="-0.059882691"
       inkscape:transform-center-y="-1.1925829"
       transform="translate(-71.586973,-2.3671266)" />
    <path
       sodipodi:type="star"
       style="fill:#dfb900;fill-opacity:1;fill-rule:evenodd;stroke-width:0.264583"
       id="path3-2"
       inkscape:flatsided="false"
       sodipodi:sides="3"
       sodipodi:cx="179.08118"
       sodipodi:cy="265.09659"
       sodipodi:r1="11.013142"
       sodipodi:r2="3.6294365"
       sodipodi:arg1="0.87605805"
       sodipodi:arg2="1.9232557"
       inkscape:rounded="0"
       inkscape:randomized="0"
       d="m 186.13162,273.55712 -8.30335,-5.05421 -9.59935,-1.53073 8.52875,-4.6638 6.12532,-7.54792 -0.2254,9.71802 z"
       inkscape:transform-center-x="-0.059882691"
       inkscape:transform-center-y="-1.1925829"
       transform="translate(-34.22566,-2.5914467)" />
    <path
       sodipodi:type="star"
       style="fill:#ffd42a;fill-rule:evenodd;stroke-width:0.264583"
       id="path35"
       inkscape:flatsided="false"
       sodipodi:sides="3"
       sodipodi:cx="110.92286"
       sodipodi:cy="273.28824"
       sodipodi:r1="10.135662"
       sodipodi:r2="3.8042393"
       sodipodi:arg1="1.1202199"
       sodipodi:arg2="1.835536"
       inkscape:rounded="0"
       inkscape:randomized="0"
       d="m 115.33678,282.41232 -5.40933,-5.45238 -9.11324,-4.41117 7.42657,-1.95843 8.37681,-5.68671 -2.01724,7.41081 z"
       inkscape:transform-center-x="-2.7488547"
       inkscape:transform-center-y="-4.0189479" />
    <path
       sodipodi:type="star"
       style="fill:#ffd42a;fill-rule:evenodd;stroke-width:0.264583"
       id="path35-4"
       inkscape:flatsided="false"
       sodipodi:sides="3"
       sodipodi:cx="121.37212"
       sodipodi:cy="262.83899"
       sodipodi:r1="18.346823"
       sodipodi:r2="3.8042393"
       sodipodi:arg1="1.0679531"
       sodipodi:arg2="1.7832692"
       inkscape:rounded="0"
       inkscape:randomized="0"
       d="m 130.2138,278.91477 -9.64391,-12.35709 -17.54064,-4.09946 15.52351,-2.17333 12.32056,-13.14091 -5.8796,14.53041 z"
       inkscape:transform-center-x="-2.7488547"
       inkscape:transform-center-y="-4.0189479"
       transform="translate(26.932287,1.28074)" />
    <path
       sodipodi:type="star"
       style="fill:#ffd42a;fill-rule:evenodd;stroke-width:0.264583"
       id="path35-43"
       inkscape:flatsided="false"
       sodipodi:sides="3"
       sodipodi:cx="111.72665"
       sodipodi:cy="263.64276"
       sodipodi:r1="18.134304"
       sodipodi:r2="3.8042393"
       sodipodi:arg1="0.2234766"
       sodipodi:arg2="0.93879268"
       inkscape:rounded="0"
       inkscape:randomized="0"
       d="m 129.41,267.66171 -15.43595,-0.94952 -14.569589,10.23533 8.540279,-12.89317 -1.57926,-17.7353 6.89567,13.84269 z"
       inkscape:transform-center-x="-2.7488547"
       inkscape:transform-center-y="-4.0189479"
       transform="translate(10.263537,-1.10051)" />
    <path
       sodipodi:type="star"
       style="fill:#ffd42a;fill-rule:evenodd;stroke-width:0.264583"
       id="path35-5"
       inkscape:flatsided="false"
       sodipodi:sides="3"
       sodipodi:cx="21.702295"
       sodipodi:cy="262.03519"
       sodipodi:r1="16.155956"
       sodipodi:r2="3.8042393"
       sodipodi:arg1="-1.670465"
       sodipodi:arg2="-0.95514894"
       inkscape:rounded="0"
       inkscape:randomized="0"
       d="m 20.094717,245.95941 3.804478,12.97 12.528921,9.75146 -13.134586,-3.19022 -14.7094772,5.97463 9.3301082,-9.77977 z"
       inkscape:transform-center-x="-2.7488547"
       inkscape:transform-center-y="-4.0189479"
       transform="translate(74.557287,7.63074)" />
    <path
       sodipodi:type="star"
       style="fill:#ffd42a;fill-rule:evenodd;stroke-width:0.264583"
       id="path35-5-3"
       inkscape:flatsided="false"
       sodipodi:sides="3"
       sodipodi:cx="32.15155"
       sodipodi:cy="257.21243"
       sodipodi:r1="17.646782"
       sodipodi:r2="5.0147238"
       sodipodi:arg1="-1.0460005"
       sodipodi:arg2="0.28171324"
       inkscape:rounded="0"
       inkscape:randomized="0"
       d="m 40.993229,241.94044 -4.024633,16.66609 3.988045,13.89902 -12.420942,-11.81848 -14.030918,-3.49576 16.445574,-4.84761 z"
       inkscape:transform-center-x="-2.7488547"
       inkscape:transform-center-y="-4.0189479"
       transform="translate(135.0847,8.83434)" />
    <path
       sodipodi:type="star"
       style="fill:#ffd42a;fill-rule:evenodd;stroke-width:0.264583"
       id="path35-4-7-5"
       inkscape:flatsided="false"
       sodipodi:sides="3"
       sodipodi:cx="130.90291"
       sodipodi:cy="266.28461"
       sodipodi:r1="18.003088"
       sodipodi:r2="5.5826097"
       sodipodi:arg1="1.5673006"
       sodipodi:arg2="2.6792916"
       inkscape:rounded="0"
       inkscape:randomized="0"
       d="m 130.96584,284.28758 -5.05953,-15.51308 -10.6259,-11.43688 15.96449,3.37486 15.21758,-3.48386 -10.90496,12.13822 z"
       inkscape:transform-center-x="41.800371"
       inkscape:transform-center-y="-14.62891"
       transform="matrix(0.75825404,-0.40880638,0.3675011,0.68164103,2.4907495,145.12055)" />
    <path
       sodipodi:type="star"
       style="fill:#ffd42a;fill-rule:evenodd;stroke-width:0.264583"
       id="path35-4-7-5-7"
       inkscape:flatsided="false"
       sodipodi:sides="3"
       sodipodi:cx="129.07367"
       sodipodi:cy="266.22186"
       sodipodi:r1="21.037004"
       sodipodi:r2="5.5826097"
       sodipodi:arg1="0.47897251"
       sodipodi:arg2="1.5909635"
       inkscape:rounded="0"
       inkscape:randomized="0"
       d="m 147.74336,275.91714 -18.78227,-4.1138 -17.61862,5.73931 12.95379,-14.20902 3.83892,-18.12783 5.82848,18.32282 z"
       inkscape:transform-center-x="41.800371"
       inkscape:transform-center-y="-14.62891"
       transform="matrix(0.75825404,-0.40880638,0.3675011,0.68164103,-18.582057,145.8275)" />
  </g>
  <path
     style="fill:#800000;stroke-width:0.264583"
     id="path10-4"
     sodipodi:type="arc"
     sodipodi:cx="156.18634"
     sodipodi:cy="108.09027"
     sodipodi:rx="24.515562"
     sodipodi:ry="26.25646"
     sodipodi:start="4.7870714"
     sodipodi:end="4.7858238"
     sodipodi:arc-type="slice"
     d="m 158.01552,81.906999 a 24.515562,26.25646 0 0 1 22.61862,28.134181 24.515562,26.25646 0 0 1 -26.26173,24.23358 24.515562,26.25646 0 0 1 -22.635,-28.11906 24.515562,26.25646 0 0 1 26.24761,-24.251125 l -1.79868,26.185695 z" />
  <g
     inkscape:groupmode="layer"
     id="layer7"
     inkscape:label="Eyes"
     transform="translate(-38.581867,-98.174822)">
    <path
       style="fill:#800000;stroke-width:0.264583"
       id="path10-4-5"
       sodipodi:type="arc"
       sodipodi:cx="112.17982"
       sodipodi:cy="207.233"
       sodipodi:rx="24.515562"
       sodipodi:ry="26.25646"
       sodipodi:start="4.7870714"
       sodipodi:end="4.7858238"
       sodipodi:arc-type="slice"
       d="m 114.009,181.04973 a 24.515562,26.25646 0 0 1 22.61861,28.13418 24.515562,26.25646 0 0 1 -26.26172,24.23358 24.515562,26.25646 0 0 1 -22.635,-28.11906 24.515562,26.25646 0 0 1 26.24761,-24.25112 l -1.79868,26.18569 z" />
    <path
       style="fill:#ffff00;stroke-width:0.264583"
       id="path4"
       sodipodi:type="arc"
       sodipodi:cx="194.11501"
       sodipodi:cy="204.96617"
       sodipodi:rx="22.104195"
       sodipodi:ry="22.50609"
       sodipodi:start="6.1392728"
       sodipodi:end="5.649238"
       sodipodi:open="true"
       sodipodi:arc-type="arc"
       d="m 215.9907,201.73843 a 22.104195,22.50609 0 0 1 -16.05609,24.9398 22.104195,22.50609 0 0 1 -26.27296,-13.17778 22.104195,22.50609 0 0 1 9.63485,-28.16052 22.104195,22.50609 0 0 1 28.62776,6.29522" />
    <path
       style="fill:#ffff00;stroke-width:0.264583"
       id="path4-3"
       sodipodi:type="arc"
       sodipodi:cx="111.01066"
       sodipodi:cy="205.63791"
       sodipodi:rx="22.104195"
       sodipodi:ry="22.50609"
       sodipodi:start="6.1392728"
       sodipodi:end="5.649238"
       sodipodi:open="true"
       sodipodi:arc-type="arc"
       d="m 132.88635,202.41017 a 22.104195,22.50609 0 0 1 -16.05609,24.9398 22.104195,22.50609 0 0 1 -26.272953,-13.17779 22.104195,22.50609 0 0 1 9.634843,-28.16051 22.104195,22.50609 0 0 1 28.62776,6.29521" />
    <ellipse
       style="fill:#ffd42a;stroke-width:0.264583"
       id="path42-6"
       cx="193.80551"
       cy="210.70192"
       rx="18.487144"
       ry="17.281462" />
    <ellipse
       style="fill:#ffd42a;stroke-width:0.264583"
       id="path42-6-8"
       cx="111.04429"
       cy="211.42703"
       rx="18.487144"
       ry="17.281462" />
    <path
       sodipodi:type="star"
       style="fill:#ffff00;fill-rule:evenodd;stroke-width:0.264583"
       id="path46"
       inkscape:flatsided="false"
       sodipodi:sides="3"
       sodipodi:cx="152.28952"
       sodipodi:cy="221.38385"
       sodipodi:r1="23.351757"
       sodipodi:r2="9.0792828"
       sodipodi:arg1="2.6374267"
       sodipodi:arg2="-2.353268"
       inkscape:rounded="0"
       inkscape:randomized="0"
       d="m 131.84324,232.66455 14.04507,-17.71948 6.85497,-16.90857 8.32299,21.02313 11.21577,14.39086 -22.36807,-3.30364 z"
       inkscape:transform-center-x="-0.44358712"
       inkscape:transform-center-y="-3.8144703" />
    <path
       sodipodi:type="star"
       style="fill:#ffdd55;fill-rule:evenodd;stroke-width:0.264583"
       id="path46-7"
       inkscape:flatsided="false"
       sodipodi:sides="3"
       sodipodi:cx="151.58447"
       sodipodi:cy="216.44855"
       sodipodi:r1="16.817923"
       sodipodi:r2="6.4835811"
       sodipodi:arg1="2.5652174"
       sodipodi:arg2="-1.7606276"
       inkscape:rounded="0"
       inkscape:randomized="0"
       d="m 137.48359,225.61412 12.87747,-15.53268 0.33623,-10.4274 7.01297,18.91856 8.86227,5.50488 -19.89043,-3.38588 z"
       inkscape:transform-center-x="-0.44358712"
       inkscape:transform-center-y="-3.8144703"
       transform="translate(0.18383333,4.1051567)" />
    <path
       sodipodi:type="star"
       style="fill:#ffff00;fill-rule:evenodd;stroke-width:0.264583"
       id="path10"
       inkscape:flatsided="false"
       sodipodi:sides="3"
       sodipodi:cx="110.69192"
       sodipodi:cy="211.51321"
       sodipodi:r1="8.9181805"
       sodipodi:r2="3.4381025"
       sodipodi:arg1="0.32175055"
       sodipodi:arg2="1.3689481"
       inkscape:rounded="0"
       inkscape:randomized="0"
       d="m 119.15245,214.33339 -7.77126,0.54813 -7.36188,2.54864 3.41094,-7.00417 1.47375,-7.6499 4.36032,6.45605 z"
       inkscape:transform-center-x="-0.8939587"
       inkscape:transform-center-y="-1.4100908" />
    <path
       sodipodi:type="star"
       style="fill:#ffff00;fill-rule:evenodd;stroke-width:0.264583"
       id="path11"
       inkscape:flatsided="false"
       sodipodi:sides="3"
       sodipodi:cx="195.2972"
       sodipodi:cy="208.69307"
       sodipodi:r1="11.627884"
       sodipodi:r2="4.4827371"
       sodipodi:arg1="1.3258177"
       sodipodi:arg2="2.3730152"
       inkscape:rounded="0"
       inkscape:randomized="0"
       d="m 198.11737,219.97377 -6.04282,-8.16469 -7.95682,-6.31402 10.09224,-1.15088 9.44651,-3.73381 -4.04942,9.31558 z"
       inkscape:transform-center-x="1.4100907"
       inkscape:transform-center-y="1.5990016" />
  </g>
</svg>
